<svg width="72" height="72" viewBox="0 0 72 72" fill="none" xmlns="http://www.w3.org/2000/svg">
<g clip-path="url(#clip0_1_46)">
<path d="M64 0H8C3.58172 0 0 3.58172 0 8V64C0 68.4183 3.58172 72 8 72H64C68.4183 72 72 68.4183 72 64V8C72 3.58172 68.4183 0 64 0Z" fill="url(#paint0_linear_1_46)"/>
<path d="M38.0264 21C37.1308 21 36.4048 21.726 36.4048 22.6216C36.4048 23.5172 37.1308 24.2432 38.0264 24.2432C38.922 24.2432 39.648 23.5172 39.648 22.6216C39.648 21.726 38.922 21 38.0264 21Z" fill="#FBA029"/>
<path d="M33.5674 51.001C34.463 51.001 35.189 50.275 35.189 49.3794C35.189 48.4838 34.463 47.7578 33.5674 47.7578C32.6718 47.7578 31.9458 48.4838 31.9458 49.3794C31.9458 50.275 32.6718 51.001 33.5674 51.001Z" fill="#FBA029"/>
<path d="M33.1616 21C32.266 21 31.54 21.726 31.54 22.6216C31.54 23.5172 32.266 24.2432 33.1616 24.2432C34.0572 24.2432 34.7832 23.5172 34.7832 22.6216C34.7832 21.726 34.0572 21 33.1616 21Z" fill="#FBA029"/>
<path d="M39.6479 49.3794C39.6479 50.275 38.9219 51.001 38.0264 51.001C37.1308 51.001 36.4048 50.275 36.4048 49.3794C36.4048 48.4838 37.1308 47.7578 38.0264 47.7578C38.9219 47.7578 39.6479 48.4838 39.6479 49.3794Z" fill="#FBA029"/>
<path d="M29.5132 24.6484C28.6176 24.6484 27.8916 25.3744 27.8916 26.27C27.8916 27.1656 28.6176 27.8916 29.5132 27.8916C30.4088 27.8916 31.1348 27.1656 31.1348 26.27C31.1348 25.3744 30.4088 24.6484 29.5132 24.6484Z" fill="#FBA029"/>
<path d="M42.4858 48.5664C43.3814 48.5664 44.1074 47.8404 44.1074 46.9448C44.1074 46.0492 43.3814 45.3232 42.4858 45.3232C41.5902 45.3232 40.8642 46.0492 40.8642 46.9448C40.8642 47.8404 41.5902 48.5664 42.4858 48.5664Z" fill="#FBA029"/>
<path opacity="0.6" d="M25.8648 41.6757C26.7603 41.6757 27.4863 42.4017 27.4863 43.2973C27.4863 44.1929 26.7603 44.9189 25.8648 44.9189C24.9692 44.9189 24.2432 44.1929 24.2432 43.2973C24.2432 42.4017 24.9692 41.6757 25.8648 41.6757Z" fill="#FBA029"/>
<path d="M42.4859 24.6484C43.3814 24.6484 44.1074 25.3744 44.1074 26.27C44.1074 27.1656 43.3814 27.8916 42.4859 27.8916C41.5903 27.8916 40.8643 27.1656 40.8643 26.27C40.8643 25.3744 41.5903 24.6484 42.4859 24.6484Z" fill="#FBA029"/>
<path opacity="0.6" d="M25.8648 28.2988C24.9692 28.2988 24.2432 29.0248 24.2432 29.9204C24.2432 30.816 24.9692 31.542 25.8648 31.542C26.7604 31.542 27.4864 30.816 27.4864 29.9204C27.4864 29.0248 26.7604 28.2988 25.8648 28.2988Z" fill="#FBA029"/>
<path opacity="0.6" d="M46.1343 44.918C47.0299 44.918 47.7559 44.192 47.7559 43.2964C47.7559 42.4008 47.0299 41.6748 46.1343 41.6748C45.2387 41.6748 44.5127 42.4008 44.5127 43.2964C44.5127 44.192 45.2387 44.918 46.1343 44.918Z" fill="#FBA029"/>
<path d="M29.9185 44.9189C30.814 44.9189 31.54 45.645 31.54 46.5405C31.54 47.4361 30.814 48.1621 29.9185 48.1621C29.0229 48.1621 28.2969 47.4361 28.2969 46.5405C28.2969 45.645 29.0229 44.9189 29.9185 44.9189Z" fill="#FBA029"/>
<path opacity="0.6" d="M46.1343 28.2988C47.0298 28.2988 47.7558 29.0248 47.7558 29.9204C47.7558 30.816 47.0298 31.542 46.1343 31.542C45.2387 31.542 44.5127 30.816 44.5127 29.9204C44.5127 29.0248 45.2387 28.2988 46.1343 28.2988Z" fill="#FBA029"/>
<path opacity="0.3" d="M24.2432 39.2437C24.2432 38.3481 23.5172 37.6221 22.6216 37.6221C21.726 37.6221 21 38.3481 21 39.2437C21 40.1393 21.726 40.8653 22.6216 40.8653C23.5172 40.8653 24.2432 40.1393 24.2432 39.2437Z" fill="#FBA029"/>
<path opacity="0.3" d="M47.7558 33.9741C47.7558 34.8697 48.4818 35.5957 49.3774 35.5957C50.273 35.5957 50.999 34.8697 50.999 33.9741C50.999 33.0785 50.273 32.3525 49.3774 32.3525C48.4818 32.3525 47.7558 33.0785 47.7558 33.9741Z" fill="#FBA029"/>
<path opacity="0.3" d="M24.2432 33.9732C24.2432 33.0776 23.5172 32.3516 22.6216 32.3516C21.726 32.3516 21 33.0776 21 33.9732C21 34.8688 21.726 35.5948 22.6216 35.5948C23.5172 35.5948 24.2432 34.8688 24.2432 33.9732Z" fill="#FBA029"/>
<path opacity="0.3" d="M47.7558 39.2436C47.7558 40.1392 48.4818 40.8652 49.3774 40.8652C50.273 40.8652 50.999 40.1392 50.999 39.2436C50.999 38.348 50.273 37.622 49.3774 37.622C48.4818 37.622 47.7558 38.348 47.7558 39.2436Z" fill="#FBA029"/>
</g>
<defs>
<linearGradient id="paint0_linear_1_46" x1="37.0651" y1="-4.69565" x2="77.7599" y2="39.9666" gradientUnits="userSpaceOnUse">
<stop stop-color="#40454A"/>
<stop offset="1" stop-color="#292C2E"/>
</linearGradient>
<clipPath id="clip0_1_46">
<rect width="72" height="72" fill="white"/>
</clipPath>
</defs>
</svg>
